<svg width="40" height="24" viewBox="0 0 40 24" fill="none" xmlns="http://www.w3.org/2000/svg">
<path d="M39.0884 1.61136C39.3631 0.683155 39.0884 0 37.7666 0H33.3929C32.2791 0 31.7667 0.586622 31.492 1.24008C31.492 1.24008 29.2643 6.66819 26.1158 10.1879C25.0985 11.2052 24.6307 11.532 24.0738 11.532C23.7991 11.532 23.3758 11.2052 23.3758 10.277V1.61136C23.3758 0.497515 23.0639 0 22.1431 0H15.267C14.569 0 14.1532 0.519792 14.1532 1.00246C14.1532 2.05689 15.7274 2.30194 15.8908 5.27218V11.7176C15.8908 13.1285 15.6383 13.3884 15.0814 13.3884C13.5963 13.3884 9.98744 7.93797 7.84886 1.70046C7.41818 0.49009 6.99492 0 5.87365 0H1.49997C0.25247 0 0 0.586622 0 1.24008C0 2.39847 1.48512 8.15331 6.91324 15.7571C10.5295 20.9476 15.6235 23.7619 20.257 23.7619C23.0416 23.7619 23.3832 23.1382 23.3832 22.0615C23.3832 17.1012 23.1308 16.6334 24.5268 16.6334C25.1728 16.6334 26.2866 16.9601 28.8856 19.4625C31.8558 22.4327 32.3459 23.7619 34.0093 23.7619H38.3829C39.6304 23.7619 40.2616 23.1382 39.8978 21.9055C39.0661 19.314 33.4449 13.9824 33.1924 13.626C32.5464 12.7943 32.7321 12.423 33.1924 11.6805C33.1999 11.673 38.5389 4.15834 39.0884 1.61136Z" fill="black"/>
</svg>
