<svg width="41" height="35" viewBox="0 0 41 35" fill="none" xmlns="http://www.w3.org/2000/svg">
<path fill-rule="evenodd" clip-rule="evenodd" d="M35.9068 0.233776C36.3986 0.0267798 36.9369 -0.0446116 37.4657 0.0270311C37.9944 0.0986738 38.4943 0.310732 38.9133 0.641134C39.3323 0.971536 39.6551 1.4082 39.8481 1.90568C40.041 2.40316 40.0971 2.94327 40.0105 3.46979L35.4968 30.8486C35.059 33.4895 32.1613 35.004 29.7393 33.6885C27.7133 32.588 24.7041 30.8924 21.9975 29.1231C20.6442 28.2375 16.4986 25.4015 17.0081 23.3834C17.446 21.658 24.4116 15.174 28.3919 11.319C29.9542 9.80451 29.2417 8.93082 27.3968 10.3239C22.8135 13.7829 15.4598 19.0429 13.0278 20.5236C10.8824 21.8291 9.76391 22.052 8.42651 21.8291C5.98657 21.4231 3.72374 20.7942 1.87686 20.028C-0.618811 18.9931 -0.49741 15.5621 1.87487 14.563L35.9068 0.233776Z" fill="black"/>
</svg>
