<svg width="25" height="40" viewBox="0 0 25 40" fill="none" xmlns="http://www.w3.org/2000/svg">
<path d="M23.6865 21.4827C23.1264 20.3425 21.5462 19.3824 19.446 21.0026C16.5856 23.2829 12.025 23.2829 12.025 23.2829C12.025 23.2829 7.46447 23.2829 4.60411 21.0026C2.50385 19.3824 0.923655 20.3425 0.363585 21.4827C-0.63654 23.4829 0.4836 24.4631 3.02392 26.0833C5.20419 27.4834 8.18456 28.0035 10.1048 28.2035L8.5046 29.8037C6.22432 32.064 4.02404 34.2443 2.52385 35.7645C1.62374 36.6846 1.62374 38.1448 2.52385 39.0049L2.80389 39.3249C3.704 40.225 5.18419 40.225 6.0843 39.3249L12.025 33.3642C14.3253 35.6245 16.5056 37.8047 18.0258 39.3249C18.9259 40.225 20.3861 40.225 21.3062 39.3249L21.5662 39.0049C22.4864 38.1448 22.4864 36.6846 21.5662 35.7645L15.6055 29.8037L14.0253 28.1835C15.9255 28.0035 18.8659 27.4634 21.0262 26.0833C23.5665 24.4631 24.6866 23.4829 23.6865 21.4827ZM12.025 5.14064C14.7854 5.14064 17.0257 7.38092 17.0257 10.1213C17.0257 12.8816 14.7854 15.1019 12.025 15.1019C9.2647 15.1019 7.02442 12.8816 7.02442 10.1213C7.02442 7.38092 9.2647 5.14064 12.025 5.14064ZM12.025 20.2425C17.6257 20.2425 22.1463 15.722 22.1463 10.1213C22.1463 7.43694 21.08 4.86256 19.1819 2.96445C17.2838 1.06634 14.7094 0 12.025 0C9.34072 0 6.76633 1.06634 4.86823 2.96445C2.97012 4.86256 1.90378 7.43694 1.90378 10.1213C1.90378 15.722 6.42434 20.2425 12.025 20.2425Z" fill="black"/>
</svg>
