<svg width="82" height="82" viewBox="0 0 82 82" fill="none" xmlns="http://www.w3.org/2000/svg">
<path d="M37.5902 69.6034L37.5865 69.6002C28.5242 61.5392 21.2058 55.0153 16.1237 48.9164C11.0676 42.8485 8.5 37.5167 8.5 31.8828C8.5 22.7029 15.8021 15.5 25.25 15.5C30.602 15.5 35.7669 17.9567 39.1185 21.7874L41 23.9377L42.8815 21.7874C46.2331 17.9567 51.398 15.5 56.75 15.5C66.1979 15.5 73.5 22.7029 73.5 31.8828C73.5 37.5167 70.9324 42.8485 65.8763 48.9164C60.7942 55.0153 53.4758 61.5392 44.4134 69.6002L44.4098 69.6034L41 72.6483L37.5902 69.6034Z" stroke="white" stroke-width="5"/>
<path d="M25 43H33L36.6364 33L45.3636 53L49.7273 43H57" stroke="white" stroke-width="2"/>
<path d="M9 27H1V55H22.5M27 15.5V1H55V15M73 27H81V55H60M55 60V81H27V60" stroke="white" stroke-width="2"/>
</svg>
